<svg width="36" height="29" viewBox="0 0 36 29" fill="none" xmlns="http://www.w3.org/2000/svg">
<path fill-rule="evenodd" clip-rule="evenodd" d="M30.0985 1.66049C30.7078 1.05652 31.5303 0.716613 32.3882 0.714246C33.2461 0.711879 34.0705 1.04725 34.6831 1.64785C35.2957 2.24845 35.6474 3.06602 35.662 3.9238C35.6766 4.78159 35.353 5.61067 34.7613 6.2318L17.3816 27.9564C17.0829 28.2781 16.7224 28.5363 16.3216 28.7155C15.9209 28.8947 15.4881 28.9913 15.0492 28.9994C14.6102 29.0075 14.1742 28.927 13.767 28.7628C13.3599 28.5985 12.9901 28.3539 12.6797 28.0434L1.16437 16.5238C0.843563 16.2248 0.586255 15.8643 0.407792 15.4638C0.229328 15.0633 0.133366 14.6309 0.12563 14.1925C0.117895 13.7541 0.198545 13.3186 0.362768 12.912C0.526991 12.5054 0.771423 12.1361 1.08148 11.826C1.39154 11.516 1.76088 11.2715 2.16745 11.1073C2.57403 10.9431 3.00952 10.8624 3.44794 10.8702C3.88636 10.8779 4.31874 10.9739 4.71927 11.1523C5.1198 11.3308 5.48028 11.5881 5.7792 11.9089L14.8957 21.021L30.0158 1.75628C30.0428 1.72255 30.0719 1.69056 30.1029 1.66049H30.0985Z" fill="#18DA65"/>
</svg>
