<svg width="34" height="33" viewBox="0 0 34 33" fill="none" xmlns="http://www.w3.org/2000/svg">
<path d="M26.3247 1.19665C23.1337 4.38991 19.9371 7.58372 16.7494 10.7775C13.5562 7.5854 10.3629 4.39158 7.16854 1.19665C3.47361 -2.4966 -2.25146 3.23126 1.44179 6.92451C4.63393 10.115 7.82886 13.3105 11.0171 16.4998C7.82663 19.692 4.63226 22.8869 1.44179 26.0807C-2.25146 29.7728 3.4764 35.499 7.16854 31.808C10.3607 28.6142 13.5539 25.4209 16.7494 22.2271C19.9427 25.4209 23.1337 28.6131 26.3247 31.808C30.0185 35.4996 35.7442 29.7728 32.0537 26.0813C28.8599 22.8874 25.6666 19.6953 22.4728 16.5004C25.6672 13.3071 28.8605 10.1133 32.0537 6.91948C35.7442 3.22735 30.0185 -2.50051 26.3247 1.19274" fill="#EF5353"/>
</svg>
